<svg width="355" height="32" viewBox="0 0 355 32" fill="none" xmlns="http://www.w3.org/2000/svg">
    <path
        d="M18.1929 14.96C18.1929 14.4298 17.7631 14 17.2329 14H15.1529C14.6227 14 14.1929 14.4298 14.1929 14.96V17.04C14.1929 17.5702 14.6227 18 15.1529 18H17.2329C17.7631 18 18.1929 17.5702 18.1929 17.04V14.96Z"
        fill="white" />
    <path fill-rule="evenodd" clip-rule="evenodd"
        d="M4.19287 0.96C4.19287 0.429807 4.62268 0 5.15287 0H11.2329C11.7631 0 12.1929 0.429807 12.1929 0.96V3.04C12.1929 3.57019 12.6227 4 13.1529 4H19.2329C19.7631 4 20.1929 3.57019 20.1929 3.04V0.96C20.1929 0.429807 20.6227 0 21.1529 0H27.2329C27.7631 0 28.1929 0.429806 28.1929 0.959999V3.00985C28.1929 3.53634 28.6169 3.96459 29.1434 3.96981L31.2424 3.99059C31.7688 3.9958 32.1929 4.42406 32.1929 4.95054V11.04C32.1929 11.5702 31.7631 12 31.2329 12H29.1529C28.6227 12 28.1929 12.4298 28.1929 12.96V19.04C28.1929 19.5702 28.6227 20 29.1529 20H31.2329C31.7631 20 32.1929 20.4298 32.1929 20.96V27.04C32.1929 27.5702 31.7631 28 31.2329 28H29.183C28.6565 28 28.2283 28.424 28.2231 28.9505L28.2023 31.0495C28.1971 31.576 27.7688 32 27.2423 32H21.1529C20.6227 32 20.1929 31.5702 20.1929 31.04V28.96C20.1929 28.4298 19.7631 28 19.2329 28H13.1529C12.6227 28 12.1929 28.4298 12.1929 28.96V31.04C12.1929 31.5702 11.7631 32 11.2329 32H5.14341C4.61693 32 4.18867 31.576 4.18346 31.0495L4.16268 28.9505C4.15747 28.424 3.72921 28 3.20273 28H1.15287C0.622678 28 0.192871 27.5702 0.192871 27.04V20.96C0.192871 20.4298 0.622678 20 1.15287 20H3.23287C3.76306 20 4.19287 19.5702 4.19287 19.04V12.96C4.19287 12.4298 3.76306 12 3.23287 12H1.15287C0.622678 12 0.192871 11.5702 0.192871 11.04V4.95054C0.192871 4.42406 0.616907 3.9958 1.14337 3.99059L3.24238 3.96981C3.76884 3.96459 4.19287 3.53634 4.19287 3.00986V0.96ZM24.1929 7.00985C24.1929 7.53634 24.6169 7.96459 25.1434 7.96981L27.2137 7.9903C27.7513 7.99563 28.1885 7.55845 28.1832 7.02085L28.1627 4.9505C28.1575 4.42404 27.7292 4 27.2027 4H25.1529C24.6227 4 24.1929 4.42981 24.1929 4.96V7.00985ZM7.21372 27.9903C7.75132 27.9956 8.1885 27.5585 8.18318 27.0208L8.16268 24.9505C8.15747 24.424 7.72921 24 7.20273 24H5.15287C4.62268 24 4.19287 24.4298 4.19287 24.96V27.0099C4.19287 27.5363 4.61691 27.9646 5.14337 27.9698L7.21372 27.9903ZM24.2231 24.9505C24.2283 24.424 24.6565 24 25.183 24H27.2329C27.7631 24 28.1929 24.4298 28.1929 24.96V27.0098C28.1929 27.5363 27.7688 27.9646 27.2424 27.9698L25.172 27.9903C24.6344 27.9956 24.1972 27.5585 24.2026 27.0208L24.2231 24.9505ZM20.1929 24L23.2424 23.9698C23.7688 23.9646 24.1929 23.5363 24.1929 23.0099V12L24.1627 8.9505C24.1575 8.42404 23.7292 8 23.2027 8H9.18302C8.65653 8 8.22828 8.42404 8.22306 8.9505L8.19287 12V23.0099C8.19287 23.5364 8.61691 23.9646 9.14337 23.9698L12.1929 24H20.1929ZM4.22306 4.9505C4.22828 4.42404 4.65653 4 5.18302 4H7.23287C7.76306 4 8.19287 4.42981 8.19287 4.96V7.00985C8.19287 7.53634 7.76883 7.96459 7.24237 7.96981L5.17202 7.9903C4.63442 7.99563 4.19724 7.55845 4.20257 7.02085L4.22306 4.9505Z"
        fill="white" />
    <path
        d="M204.579 14.96C204.579 14.4298 204.149 14 203.619 14H201.539C201.008 14 200.579 14.4298 200.579 14.96V17.04C200.579 17.5702 201.008 18 201.539 18H203.619C204.149 18 204.579 17.5702 204.579 17.04V14.96Z"
        fill="white" />
    <path fill-rule="evenodd" clip-rule="evenodd"
        d="M190.579 0.96C190.579 0.429807 191.008 0 191.539 0H197.619C198.149 0 198.579 0.429807 198.579 0.96V3.04C198.579 3.57019 199.008 4 199.539 4H205.619C206.149 4 206.579 3.57019 206.579 3.04V0.96C206.579 0.429807 207.008 0 207.539 0H213.619C214.149 0 214.579 0.429806 214.579 0.959999V3.00985C214.579 3.53634 215.003 3.96459 215.529 3.96981L217.628 3.99059C218.155 3.9958 218.579 4.42406 218.579 4.95054V11.04C218.579 11.5702 218.149 12 217.619 12H215.539C215.008 12 214.579 12.4298 214.579 12.96V19.04C214.579 19.5702 215.008 20 215.539 20H217.619C218.149 20 218.579 20.4298 218.579 20.96V27.04C218.579 27.5702 218.149 28 217.619 28H215.569C215.042 28 214.614 28.424 214.609 28.9505L214.588 31.0495C214.583 31.576 214.155 32 213.628 32H207.539C207.008 32 206.579 31.5702 206.579 31.04V28.96C206.579 28.4298 206.149 28 205.619 28H199.539C199.008 28 198.579 28.4298 198.579 28.96V31.04C198.579 31.5702 198.149 32 197.619 32H191.529C191.003 32 190.574 31.576 190.569 31.0495L190.548 28.9505C190.543 28.424 190.115 28 189.588 28H187.539C187.008 28 186.579 27.5702 186.579 27.04V20.96C186.579 20.4298 187.008 20 187.539 20H189.619C190.149 20 190.579 19.5702 190.579 19.04V12.96C190.579 12.4298 190.149 12 189.619 12H187.539C187.008 12 186.579 11.5702 186.579 11.04V4.95054C186.579 4.42406 187.003 3.9958 187.529 3.99059L189.628 3.96981C190.155 3.96459 190.579 3.53634 190.579 3.00986V0.96ZM210.579 7.00985C210.579 7.53634 211.003 7.96459 211.529 7.96981L213.599 7.9903C214.137 7.99563 214.574 7.55845 214.569 7.02085L214.548 4.9505C214.543 4.42404 214.115 4 213.588 4H211.539C211.008 4 210.579 4.42981 210.579 4.96V7.00985ZM193.599 27.9903C194.137 27.9956 194.574 27.5585 194.569 27.0208L194.548 24.9505C194.543 24.424 194.115 24 193.588 24H191.539C191.008 24 190.579 24.4298 190.579 24.96V27.0099C190.579 27.5363 191.003 27.9646 191.529 27.9698L193.599 27.9903ZM210.609 24.9505C210.614 24.424 211.042 24 211.569 24H213.619C214.149 24 214.579 24.4298 214.579 24.96V27.0098C214.579 27.5363 214.155 27.9646 213.628 27.9698L211.558 27.9903C211.02 27.9956 210.583 27.5585 210.588 27.0208L210.609 24.9505ZM206.579 24L209.628 23.9698C210.155 23.9646 210.579 23.5363 210.579 23.0099V12L210.548 8.9505C210.543 8.42404 210.115 8 209.588 8H195.569C195.042 8 194.614 8.42404 194.609 8.9505L194.579 12V23.0099C194.579 23.5364 195.003 23.9646 195.529 23.9698L198.579 24H206.579ZM190.609 4.9505C190.614 4.42404 191.042 4 191.569 4H193.619C194.149 4 194.579 4.42981 194.579 4.96V7.00985C194.579 7.53634 194.155 7.96459 193.628 7.96981L191.558 7.9903C191.02 7.99563 190.583 7.55845 190.588 7.02085L190.609 4.9505Z"
        fill="white" />
    <path
        d="M61.9472 1.48772C61.9472 0.976127 62.3695 0.561401 62.8903 0.561401H64.9339C65.4547 0.561401 65.877 0.976127 65.877 1.48772V13.1439C65.877 13.6554 66.2993 14.0702 66.8202 14.0702H68.8341C69.3513 14.0702 69.7721 13.661 69.7772 13.153L69.7976 11.1277C69.8027 10.6197 70.2235 10.2105 70.7407 10.2105H72.7639C73.2811 10.2105 73.7019 9.80137 73.707 9.29338L73.7274 7.26802C73.7325 6.76003 74.1533 6.35088 74.6705 6.35088H76.7233C77.2442 6.35088 77.6665 6.7656 77.6665 7.27719V9.29333C77.6665 9.80135 77.2499 10.2146 76.7327 10.2196L74.6705 10.2397C74.1533 10.2447 73.7367 10.6579 73.7367 11.1659V13.153C73.7367 13.661 73.3201 14.0742 72.8028 14.0793L70.7407 14.0993C70.2234 14.1043 69.8068 14.5176 69.8068 15.0256V16.9889C69.8068 17.4987 70.2262 17.9127 70.7453 17.9152L72.7982 17.9252C73.3172 17.9278 73.7367 18.3418 73.7367 18.8515V20.8341C73.7367 21.3421 74.1533 21.7553 74.6705 21.7603L76.7327 21.7804C77.2499 21.7854 77.6665 22.1987 77.6665 22.7067V24.7228C77.6665 25.2344 77.2442 25.6491 76.7233 25.6491H74.6705C74.1533 25.6491 73.7325 25.24 73.7274 24.732L73.707 22.7066C73.7019 22.1986 73.2811 21.7895 72.7639 21.7895H70.7453C70.2263 21.7895 69.8048 21.3776 69.8022 20.8678L69.792 18.8515C69.7894 18.3417 69.3679 17.9298 68.8488 17.9298H66.8202C66.2993 17.9298 65.877 18.3445 65.877 18.8561V30.5123C65.877 31.0239 65.4547 31.4386 64.9339 31.4386H62.8903C62.3695 31.4386 61.9472 31.0239 61.9472 30.5123V18.8561C61.9472 18.3445 61.5249 17.9298 61.004 17.9298H58.9754C58.4563 17.9298 58.0348 18.3417 58.0322 18.8515L58.022 20.8678C58.0195 21.3775 57.5979 21.7895 57.0789 21.7895H55.0603C54.5431 21.7895 54.1223 22.1986 54.1172 22.7066L54.0968 24.732C54.0917 25.24 53.6709 25.6491 53.1537 25.6491H51.1009C50.58 25.6491 50.1577 25.2344 50.1577 24.7228V22.7067C50.1577 22.1987 50.5743 21.7854 51.0915 21.7804L53.1537 21.7603C53.6709 21.7553 54.0875 21.3421 54.0875 20.8341V18.8515C54.0875 18.3417 54.507 17.9278 55.026 17.9252L57.0789 17.9152C57.598 17.9127 58.0174 17.4987 58.0174 16.9889V15.0256C58.0174 14.5176 57.6008 14.1043 57.0835 14.0993L55.0214 14.0793C54.5041 14.0742 54.0875 13.661 54.0875 13.153V11.1659C54.0875 10.6579 53.6709 10.2447 53.1537 10.2397L51.0915 10.2196C50.5743 10.2146 50.1577 9.80135 50.1577 9.29333V7.27719C50.1577 6.7656 50.58 6.35088 51.1009 6.35088H53.1537C53.6709 6.35088 54.0917 6.76003 54.0968 7.26802L54.1172 9.29338C54.1223 9.80137 54.5431 10.2105 55.0603 10.2105H57.0835C57.6007 10.2105 58.0215 10.6197 58.0266 11.1277L58.047 13.153C58.0521 13.661 58.4729 14.0702 58.9901 14.0702H61.004C61.5249 14.0702 61.9472 13.6554 61.9472 13.1439V1.48772Z"
        fill="white" />
    <path
        d="M248.333 1.48772C248.333 0.976127 248.756 0.561401 249.277 0.561401H251.32C251.841 0.561401 252.263 0.976127 252.263 1.48772V13.1439C252.263 13.6554 252.686 14.0702 253.206 14.0702H255.22C255.738 14.0702 256.158 13.661 256.163 13.153L256.184 11.1277C256.189 10.6197 256.61 10.2105 257.127 10.2105H259.15C259.667 10.2105 260.088 9.80137 260.093 9.29338L260.114 7.26802C260.119 6.76003 260.54 6.35088 261.057 6.35088H263.11C263.63 6.35088 264.053 6.7656 264.053 7.27719V9.29333C264.053 9.80135 263.636 10.2146 263.119 10.2196L261.057 10.2397C260.539 10.2447 260.123 10.6579 260.123 11.1659V13.153C260.123 13.661 259.706 14.0742 259.189 14.0793L257.127 14.0993C256.61 14.1043 256.193 14.5176 256.193 15.0256V16.9889C256.193 17.4987 256.612 17.9127 257.132 17.9152L259.184 17.9252C259.703 17.9278 260.123 18.3418 260.123 18.8515V20.8341C260.123 21.3421 260.539 21.7553 261.057 21.7603L263.119 21.7804C263.636 21.7854 264.053 22.1987 264.053 22.7067V24.7228C264.053 25.2344 263.63 25.6491 263.11 25.6491H261.057C260.54 25.6491 260.119 25.24 260.114 24.732L260.093 22.7066C260.088 22.1986 259.667 21.7895 259.15 21.7895H257.132C256.612 21.7895 256.191 21.3776 256.188 20.8678L256.178 18.8515C256.176 18.3417 255.754 17.9298 255.235 17.9298H253.206C252.686 17.9298 252.263 18.3445 252.263 18.8561V30.5123C252.263 31.0239 251.841 31.4386 251.32 31.4386H249.277C248.756 31.4386 248.333 31.0239 248.333 30.5123V18.8561C248.333 18.3445 247.911 17.9298 247.39 17.9298H245.362C244.843 17.9298 244.421 18.3417 244.418 18.8515L244.408 20.8678C244.406 21.3775 243.984 21.7895 243.465 21.7895H241.447C240.929 21.7895 240.509 22.1986 240.503 22.7066L240.483 24.732C240.478 25.24 240.057 25.6491 239.54 25.6491H237.487C236.966 25.6491 236.544 25.2344 236.544 24.7228V22.7067C236.544 22.1987 236.961 21.7854 237.478 21.7804L239.54 21.7603C240.057 21.7553 240.474 21.3421 240.474 20.8341V18.8515C240.474 18.3417 240.893 17.9278 241.412 17.9252L243.465 17.9152C243.984 17.9127 244.404 17.4987 244.404 16.9889V15.0256C244.404 14.5176 243.987 14.1043 243.47 14.0993L241.408 14.0793C240.89 14.0742 240.474 13.661 240.474 13.153V11.1659C240.474 10.6579 240.057 10.2447 239.54 10.2397L237.478 10.2196C236.961 10.2146 236.544 9.80135 236.544 9.29333V7.27719C236.544 6.7656 236.966 6.35088 237.487 6.35088H239.54C240.057 6.35088 240.478 6.76003 240.483 7.26802L240.503 9.29338C240.509 9.80137 240.929 10.2105 241.447 10.2105H243.47C243.987 10.2105 244.408 10.6197 244.413 11.1277L244.433 13.153C244.438 13.661 244.859 14.0702 245.376 14.0702H247.39C247.911 14.0702 248.333 13.6554 248.333 13.1439V1.48772Z"
        fill="white" />
    <path
        d="M107.421 1.48772C107.421 0.976127 107.843 0.561401 108.364 0.561401H110.407C110.928 0.561401 111.351 0.976127 111.351 1.48772V13.1439C111.351 13.6554 111.773 14.0702 112.294 14.0702H114.308C114.825 14.0702 115.246 13.661 115.251 13.153L115.271 11.1277C115.276 10.6197 115.697 10.2105 116.214 10.2105H118.238C118.755 10.2105 119.176 9.80137 119.181 9.29338L119.201 7.26802C119.206 6.76003 119.627 6.35088 120.144 6.35088H122.197C122.718 6.35088 123.14 6.7656 123.14 7.27719V9.29333C123.14 9.80135 122.724 10.2146 122.206 10.2196L120.144 10.2397C119.627 10.2447 119.21 10.6579 119.21 11.1659V13.153C119.21 13.661 118.794 14.0742 118.276 14.0793L116.214 14.0993C115.697 14.1043 115.28 14.5176 115.28 15.0256V16.9889C115.28 17.4987 115.7 17.9127 116.219 17.9152L118.272 17.9252C118.791 17.9278 119.21 18.3418 119.21 18.8515V20.8341C119.21 21.3421 119.627 21.7553 120.144 21.7603L122.206 21.7804C122.724 21.7854 123.14 22.1987 123.14 22.7067V24.7228C123.14 25.2344 122.718 25.6491 122.197 25.6491H120.144C119.627 25.6491 119.206 25.24 119.201 24.732L119.181 22.7066C119.176 22.1986 118.755 21.7895 118.238 21.7895H116.219C115.7 21.7895 115.278 21.3776 115.276 20.8678L115.266 18.8515C115.263 18.3417 114.842 17.9298 114.322 17.9298H112.294C111.773 17.9298 111.351 18.3445 111.351 18.8561V30.5123C111.351 31.0239 110.928 31.4386 110.407 31.4386H108.364C107.843 31.4386 107.421 31.0239 107.421 30.5123V18.8561C107.421 18.3445 106.999 17.9298 106.478 17.9298H104.449C103.93 17.9298 103.508 18.3417 103.506 18.8515L103.496 20.8678C103.493 21.3775 103.072 21.7895 102.553 21.7895H100.534C100.017 21.7895 99.596 22.1986 99.5908 22.7066L99.5704 24.732C99.5653 25.24 99.1446 25.6491 98.6273 25.6491H96.5745C96.0536 25.6491 95.6313 25.2344 95.6313 24.7228V22.7067C95.6313 22.1987 96.0479 21.7854 96.5652 21.7804L98.6274 21.7603C99.1446 21.7553 99.5612 21.3421 99.5612 20.8341V18.8515C99.5612 18.3417 99.9806 17.9278 100.5 17.9252L102.553 17.9152C103.072 17.9127 103.491 17.4987 103.491 16.9889V15.0256C103.491 14.5176 103.074 14.1043 102.557 14.0993L100.495 14.0793C99.9778 14.0742 99.5612 13.661 99.5612 13.153V11.1659C99.5612 10.6579 99.1446 10.2447 98.6274 10.2397L96.5652 10.2196C96.0479 10.2146 95.6313 9.80135 95.6313 9.29333V7.27719C95.6313 6.7656 96.0536 6.35088 96.5745 6.35088H98.6273C99.1446 6.35088 99.5653 6.76003 99.5704 7.26802L99.5908 9.29338C99.596 9.80137 100.017 10.2105 100.534 10.2105H102.557C103.074 10.2105 103.495 10.6197 103.5 11.1277L103.521 13.153C103.526 13.661 103.947 14.0702 104.464 14.0702H106.478C106.999 14.0702 107.421 13.6554 107.421 13.1439V1.48772Z"
        fill="white" />
    <path
        d="M293.807 1.48772C293.807 0.976127 294.229 0.561401 294.75 0.561401H296.794C297.315 0.561401 297.737 0.976127 297.737 1.48772V13.1439C297.737 13.6554 298.159 14.0702 298.68 14.0702H300.694C301.211 14.0702 301.632 13.661 301.637 13.153L301.657 11.1277C301.663 10.6197 302.083 10.2105 302.601 10.2105H304.624C305.141 10.2105 305.562 9.80137 305.567 9.29338L305.587 7.26802C305.592 6.76003 306.013 6.35088 306.53 6.35088H308.583C309.104 6.35088 309.526 6.7656 309.526 7.27719V9.29333C309.526 9.80135 309.11 10.2146 308.593 10.2196L306.53 10.2397C306.013 10.2447 305.597 10.6579 305.597 11.1659V13.153C305.597 13.661 305.18 14.0742 304.663 14.0793L302.601 14.0993C302.083 14.1043 301.667 14.5176 301.667 15.0256V16.9889C301.667 17.4987 302.086 17.9127 302.605 17.9152L304.658 17.9252C305.177 17.9278 305.597 18.3418 305.597 18.8515V20.8341C305.597 21.3421 306.013 21.7553 306.53 21.7603L308.593 21.7804C309.11 21.7854 309.526 22.1987 309.526 22.7067V24.7228C309.526 25.2344 309.104 25.6491 308.583 25.6491H306.53C306.013 25.6491 305.592 25.24 305.587 24.732L305.567 22.7066C305.562 22.1986 305.141 21.7895 304.624 21.7895H302.605C302.086 21.7895 301.665 21.3776 301.662 20.8678L301.652 18.8515C301.649 18.3417 301.228 17.9298 300.709 17.9298H298.68C298.159 17.9298 297.737 18.3445 297.737 18.8561V30.5123C297.737 31.0239 297.315 31.4386 296.794 31.4386H294.75C294.229 31.4386 293.807 31.0239 293.807 30.5123V18.8561C293.807 18.3445 293.385 17.9298 292.864 17.9298H290.835C290.316 17.9298 289.895 18.3417 289.892 18.8515L289.882 20.8678C289.879 21.3775 289.458 21.7895 288.939 21.7895H286.92C286.403 21.7895 285.982 22.1986 285.977 22.7066L285.957 24.732C285.952 25.24 285.531 25.6491 285.014 25.6491H282.961C282.44 25.6491 282.018 25.2344 282.018 24.7228V22.7067C282.018 22.1987 282.434 21.7854 282.951 21.7804L285.014 21.7603C285.531 21.7553 285.947 21.3421 285.947 20.8341V18.8515C285.947 18.3417 286.367 17.9278 286.886 17.9252L288.939 17.9152C289.458 17.9127 289.877 17.4987 289.877 16.9889V15.0256C289.877 14.5176 289.461 14.1043 288.943 14.0993L286.881 14.0793C286.364 14.0742 285.947 13.661 285.947 13.153V11.1659C285.947 10.6579 285.531 10.2447 285.014 10.2397L282.951 10.2196C282.434 10.2146 282.018 9.80135 282.018 9.29333V7.27719C282.018 6.7656 282.44 6.35088 282.961 6.35088H285.014C285.531 6.35088 285.952 6.76003 285.957 7.26802L285.977 9.29338C285.982 9.80137 286.403 10.2105 286.92 10.2105H288.943C289.461 10.2105 289.881 10.6197 289.886 11.1277L289.907 13.153C289.912 13.661 290.333 14.0702 290.85 14.0702H292.864C293.385 14.0702 293.807 13.6554 293.807 13.1439V1.48772Z"
        fill="white" />
    <path
        d="M152.894 1.48772C152.894 0.976127 153.317 0.561401 153.838 0.561401H155.881C156.402 0.561401 156.824 0.976127 156.824 1.48772V13.1439C156.824 13.6554 157.247 14.0702 157.767 14.0702H159.781C160.299 14.0702 160.719 13.661 160.724 13.153L160.745 11.1277C160.75 10.6197 161.171 10.2105 161.688 10.2105H163.711C164.228 10.2105 164.649 9.80137 164.654 9.29338L164.675 7.26802C164.68 6.76003 165.101 6.35088 165.618 6.35088H167.671C168.191 6.35088 168.614 6.7656 168.614 7.27719V9.29333C168.614 9.80135 168.197 10.2146 167.68 10.2196L165.618 10.2397C165.101 10.2447 164.684 10.6579 164.684 11.1659V13.153C164.684 13.661 164.267 14.0742 163.75 14.0793L161.688 14.0993C161.171 14.1043 160.754 14.5176 160.754 15.0256V16.9889C160.754 17.4987 161.174 17.9127 161.693 17.9152L163.745 17.9252C164.265 17.9278 164.684 18.3418 164.684 18.8515V20.8341C164.684 21.3421 165.101 21.7553 165.618 21.7603L167.68 21.7804C168.197 21.7854 168.614 22.1987 168.614 22.7067V24.7228C168.614 25.2344 168.191 25.6491 167.671 25.6491H165.618C165.101 25.6491 164.68 25.24 164.675 24.732L164.654 22.7066C164.649 22.1986 164.228 21.7895 163.711 21.7895H161.693C161.174 21.7895 160.752 21.3776 160.749 20.8678L160.739 18.8515C160.737 18.3417 160.315 17.9298 159.796 17.9298H157.767C157.247 17.9298 156.824 18.3445 156.824 18.8561V30.5123C156.824 31.0239 156.402 31.4386 155.881 31.4386H153.838C153.317 31.4386 152.894 31.0239 152.894 30.5123V18.8561C152.894 18.3445 152.472 17.9298 151.951 17.9298H149.923C149.404 17.9298 148.982 18.3417 148.98 18.8515L148.969 20.8678C148.967 21.3775 148.545 21.7895 148.026 21.7895H146.008C145.49 21.7895 145.07 22.1986 145.064 22.7066L145.044 24.732C145.039 25.24 144.618 25.6491 144.101 25.6491H142.048C141.527 25.6491 141.105 25.2344 141.105 24.7228V22.7067C141.105 22.1987 141.522 21.7854 142.039 21.7804L144.101 21.7603C144.618 21.7553 145.035 21.3421 145.035 20.8341V18.8515C145.035 18.3417 145.454 17.9278 145.973 17.9252L148.026 17.9152C148.545 17.9127 148.965 17.4987 148.965 16.9889V15.0256C148.965 14.5176 148.548 14.1043 148.031 14.0993L145.969 14.0793C145.451 14.0742 145.035 13.661 145.035 13.153V11.1659C145.035 10.6579 144.618 10.2447 144.101 10.2397L142.039 10.2196C141.522 10.2146 141.105 9.80135 141.105 9.29333V7.27719C141.105 6.7656 141.527 6.35088 142.048 6.35088H144.101C144.618 6.35088 145.039 6.76003 145.044 7.26802L145.064 9.29338C145.07 9.80137 145.49 10.2105 146.008 10.2105H148.031C148.548 10.2105 148.969 10.6197 148.974 11.1277L148.994 13.153C148.999 13.661 149.42 14.0702 149.937 14.0702H151.951C152.472 14.0702 152.894 13.6554 152.894 13.1439V1.48772Z"
        fill="white" />
    <path
        d="M339.281 1.48772C339.281 0.976127 339.703 0.561401 340.224 0.561401H342.267C342.788 0.561401 343.211 0.976127 343.211 1.48772V13.1439C343.211 13.6554 343.633 14.0702 344.154 14.0702H346.168C346.685 14.0702 347.106 13.661 347.111 13.153L347.131 11.1277C347.136 10.6197 347.557 10.2105 348.074 10.2105H350.097C350.615 10.2105 351.035 9.80137 351.04 9.29338L351.061 7.26802C351.066 6.76003 351.487 6.35088 352.004 6.35088H354.057C354.578 6.35088 355 6.7656 355 7.27719V9.29333C355 9.80135 354.583 10.2146 354.066 10.2196L352.004 10.2397C351.487 10.2447 351.07 10.6579 351.07 11.1659V13.153C351.07 13.661 350.654 14.0742 350.136 14.0793L348.074 14.0993C347.557 14.1043 347.14 14.5176 347.14 15.0256V16.9889C347.14 17.4987 347.56 17.9127 348.079 17.9152L350.132 17.9252C350.651 17.9278 351.07 18.3418 351.07 18.8515V20.8341C351.07 21.3421 351.487 21.7553 352.004 21.7603L354.066 21.7804C354.583 21.7854 355 22.1987 355 22.7067V24.7228C355 25.2344 354.578 25.6491 354.057 25.6491H352.004C351.487 25.6491 351.066 25.24 351.061 24.732L351.04 22.7066C351.035 22.1986 350.615 21.7895 350.097 21.7895H348.079C347.56 21.7895 347.138 21.3776 347.136 20.8678L347.125 18.8515C347.123 18.3417 346.701 17.9298 346.182 17.9298H344.154C343.633 17.9298 343.211 18.3445 343.211 18.8561V30.5123C343.211 31.0239 342.788 31.4386 342.267 31.4386H340.224C339.703 31.4386 339.281 31.0239 339.281 30.5123V18.8561C339.281 18.3445 338.858 17.9298 338.338 17.9298H336.309C335.79 17.9298 335.368 18.3417 335.366 18.8515L335.356 20.8678C335.353 21.3775 334.931 21.7895 334.412 21.7895H332.394C331.877 21.7895 331.456 22.1986 331.451 22.7066L331.43 24.732C331.425 25.24 331.004 25.6491 330.487 25.6491H328.434C327.913 25.6491 327.491 25.2344 327.491 24.7228V22.7067C327.491 22.1987 327.908 21.7854 328.425 21.7804L330.487 21.7603C331.004 21.7553 331.421 21.3421 331.421 20.8341V18.8515C331.421 18.3417 331.84 17.9278 332.36 17.9252L334.412 17.9152C334.931 17.9127 335.351 17.4987 335.351 16.9889V15.0256C335.351 14.5176 334.934 14.1043 334.417 14.0993L332.355 14.0793C331.838 14.0742 331.421 13.661 331.421 13.153V11.1659C331.421 10.6579 331.004 10.2447 330.487 10.2397L328.425 10.2196C327.908 10.2146 327.491 9.80135 327.491 9.29333V7.27719C327.491 6.7656 327.913 6.35088 328.434 6.35088H330.487C331.004 6.35088 331.425 6.76003 331.43 7.26802L331.451 9.29338C331.456 9.80137 331.877 10.2105 332.394 10.2105H334.417C334.934 10.2105 335.355 10.6197 335.36 11.1277L335.381 13.153C335.386 13.661 335.806 14.0702 336.324 14.0702H338.338C338.858 14.0702 339.281 13.6554 339.281 13.1439V1.48772Z"
        fill="white" />
</svg>