<svg width="24" height="24" viewBox="0 0 24 24" fill="none" xmlns="http://www.w3.org/2000/svg">
<path fill-rule="evenodd" clip-rule="evenodd" d="M13.6816 20.7784V20.0539H13.1152H12.5488V18.2745V16.4952L12.1875 16.4839L11.8262 16.4727L11.816 14.7013L11.8059 12.9299L9.78477 12.94L7.76367 12.9502L7.75227 13.2535L7.74086 13.5568H5.04719H2.35352V7.86212V2.16743H5.04762H7.74172L7.7527 2.64688L7.76367 3.12633L11.0547 3.13635L14.3457 3.14633V2.42206V1.69776H17.627H20.9082V2.42183V3.1459H17.627H14.3457V3.8504V4.55489H11.0447H7.74371L7.75371 8.02846L7.76367 11.502L9.94141 11.5121L12.1191 11.5223V12.1481V12.774H12.6855H13.252V14.5744V16.3748H13.6035H13.9551V18.2138V20.0528L15.2734 20.0631L16.5918 20.0734V20.7779V21.4824L15.1367 21.4927L13.6816 21.5029V20.7784ZM16.6113 17.2163V14.3787H17.3145H18.0176V13.6742V12.9697H19.4629H20.9082V13.6742V14.3787H19.4629H18.0176V17.2163V20.0539H17.3145H16.6113V17.2163ZM20.9473 8.05782V3.1459H21.6504H22.3535V8.05782V12.9697H21.6504H20.9473V8.05782Z" fill="#FF666B"/>
</svg>
