<svg width="24" height="24" viewBox="0 0 24 24" fill="none" xmlns="http://www.w3.org/2000/svg">
<path fill-rule="evenodd" clip-rule="evenodd" d="M13.6816 2.42278V3.14732H13.1152H12.5488V4.92664V6.70601L12.1875 6.71725L11.8262 6.72852L11.816 8.4999L11.8059 10.2713L9.78477 10.2611L7.76367 10.251L7.75227 9.94768L7.74086 9.64436H5.04719H2.35352V15.3391V21.0337H5.04762H7.74172L7.7527 20.5543L7.76367 20.0748L11.0547 20.0648L14.3457 20.0548V20.7791V21.5034H17.627H20.9082V20.7793V20.0553H17.627H14.3457V19.3508V18.6463H11.0447H7.74371L7.75371 15.1727L7.76367 11.6991L9.94141 11.689L12.1191 11.6789V11.053V10.4271H12.6855H13.252V8.62675V6.82636H13.6035H13.9551V4.98735V3.14837L15.2734 3.13804L16.5918 3.12775V2.42325V1.71875L15.1367 1.7085L13.6816 1.69824V2.42278ZM16.6113 5.98488V8.82244H17.3145H18.0176V9.52694V10.2314H19.4629H20.9082V9.52694V8.82244H19.4629H18.0176V5.98488V3.14732H17.3145H16.6113V5.98488ZM20.9473 15.1434V20.0553H21.6504H22.3535V15.1434V10.2314H21.6504H20.9473V15.1434Z" fill="#AEF342"/>
</svg>
