<svg width="97" height="20" viewBox="0 0 97 20" fill="none" xmlns="http://www.w3.org/2000/svg">
    <path
        d="M11.8563 -0.00585938C11.04 -0.00585938 10.7055 1.05199 11.371 1.52902L18.186 6.41375C18.6241 6.72779 19.2309 6.41171 19.2309 5.86946C19.2309 2.62461 16.6238 -0.00585938 13.4079 -0.00585938H11.8563Z"
        fill="white" />
    <path
        d="M9.5246 1.56742C9.5246 0.698523 8.82178 -0.0191474 7.97251 0.124697C7.25603 0.24605 6.55375 0.451318 5.87969 0.737638C4.72411 1.22849 3.67413 1.94795 2.78969 2.85494C1.90525 3.76192 1.20367 4.83867 0.725017 6.0237C0.246361 7.20874 0 8.47885 0 9.76152C0 11.0442 0.246361 12.3143 0.725017 13.4993C1.20367 14.6844 1.90525 15.7611 2.78969 16.6681C3.67413 17.5751 4.72411 18.2945 5.87969 18.7854C6.55375 19.0717 7.25603 19.277 7.97251 19.3983C8.82178 19.5422 9.5246 18.8245 9.5246 17.9556V1.56742Z"
        fill="white" />
    <path
        d="M19.2309 11.466V17.9557C19.2309 18.8246 18.5328 19.529 17.6716 19.529H12.5355C11.6743 19.529 10.9762 18.8246 10.9762 17.9557V11.466C10.9762 9.20166 12.8241 7.36608 15.1036 7.36608C17.383 7.36608 19.2309 9.20166 19.2309 11.466Z"
        fill="white" />
    <path
        d="M31.6396 16.2305C32.3554 16.5384 33.1342 16.6924 33.9763 16.6924C34.671 16.6924 35.3446 16.5756 35.9972 16.342C36.6498 16.0977 37.2339 15.7419 37.7497 15.2746C38.276 14.7967 38.6917 14.2073 38.997 13.5064C39.3022 12.8054 39.4548 11.9983 39.4548 11.085V9.89019H33.9289V11.7222H37.3076V11.77C37.3076 12.3753 37.155 12.901 36.8498 13.3471C36.5445 13.7825 36.1393 14.1223 35.6341 14.3666C35.1288 14.6003 34.5762 14.7171 33.9763 14.7171C33.2395 14.7171 32.5869 14.5418 32.0185 14.1914C31.4502 13.8409 31.0028 13.3577 30.6765 12.7417C30.3608 12.1151 30.2029 11.3876 30.2029 10.5593C30.2029 9.73089 30.3555 9.00871 30.6607 8.39274C30.9765 7.77677 31.4133 7.29355 31.9712 6.94308C32.5395 6.59261 33.1921 6.41738 33.9289 6.41738C34.6868 6.41738 35.3288 6.60854 35.8551 6.99087C36.3814 7.3732 36.755 7.87235 36.9761 8.48832L38.8865 7.56436C38.6865 7.00149 38.3549 6.48641 37.8918 6.01912C37.4287 5.54121 36.8603 5.15888 36.1866 4.87214C35.5235 4.58539 34.771 4.44202 33.9289 4.44202C33.0869 4.44202 32.308 4.59601 31.5922 4.904C30.8765 5.20136 30.2502 5.62617 29.7134 6.17842C29.1872 6.72005 28.7767 7.36789 28.4819 8.12192C28.1978 8.86534 28.0557 9.67778 28.0557 10.5593C28.0557 11.4407 28.203 12.2532 28.4977 12.9966C28.803 13.74 29.224 14.3878 29.7608 14.9401C30.2976 15.4924 30.9239 15.9225 31.6396 16.2305Z"
        fill="white" />
    <path fill-rule="evenodd" clip-rule="evenodd"
        d="M42.0223 16.3898C42.4644 16.5915 42.9854 16.6924 43.5853 16.6924C44.059 16.6924 44.4905 16.6287 44.88 16.5013C45.2694 16.3632 45.6168 16.172 45.922 15.9278C46.0446 15.8254 46.1604 15.7137 46.2693 15.5925V16.5013H48.2271V10.7345C48.2271 10.1185 48.0745 9.5822 47.7692 9.12553C47.4745 8.65824 47.0588 8.29716 46.522 8.04227C45.9852 7.77676 45.3641 7.64401 44.6589 7.64401C44.08 7.64401 43.5432 7.73959 43.0485 7.93076C42.5538 8.12192 42.1223 8.38743 41.7539 8.72727C41.396 9.0565 41.1329 9.44945 40.9645 9.90612L42.6538 10.7345C42.8117 10.3415 43.0591 10.0283 43.3959 9.79461C43.7432 9.55034 44.1379 9.42821 44.58 9.42821C45.0536 9.42821 45.4326 9.55565 45.7168 9.81054C46.0115 10.0548 46.1588 10.3628 46.1588 10.7345V11.015L43.6011 11.4354C42.9275 11.5416 42.3696 11.7222 41.9276 11.9771C41.4855 12.2319 41.1592 12.5506 40.9487 12.9329C40.7382 13.3046 40.6329 13.7294 40.6329 14.2073C40.6329 14.7065 40.754 15.1472 40.996 15.5295C41.2381 15.9012 41.5802 16.188 42.0223 16.3898ZM46.1588 12.6098L43.9958 12.9807C43.5853 13.055 43.2801 13.1878 43.0801 13.3789C42.8801 13.5701 42.7801 13.8197 42.7801 14.1277C42.7801 14.425 42.8906 14.664 43.1117 14.8445C43.3432 15.0144 43.6274 15.0994 43.9642 15.0994C44.3958 15.0994 44.7747 15.0091 45.101 14.8286C45.4378 14.6374 45.6957 14.3772 45.8746 14.048C46.0641 13.7188 46.1588 13.3577 46.1588 12.9647V12.6098Z"
        fill="white" />
    <path
        d="M51.6423 15.8003C52.1791 16.3314 52.9317 16.5969 53.9 16.5969C54.0579 16.5969 54.2316 16.5862 54.421 16.565C54.6105 16.5438 54.7789 16.5225 54.9263 16.5013V14.7171C54.8315 14.7277 54.7316 14.7383 54.6263 14.7489C54.5316 14.7596 54.4474 14.7649 54.3737 14.7649C54.0369 14.7649 53.7579 14.7118 53.5369 14.6056C53.3264 14.4994 53.1685 14.3454 53.0633 14.1436C52.9685 13.9418 52.9212 13.6975 52.9212 13.4108V9.69902H54.8947V7.83518H52.9212V5.85982H50.8529V6.52889C50.8529 6.9537 50.7371 7.27761 50.5055 7.50064C50.274 7.72366 49.9477 7.83518 49.5267 7.83518H49.3688V9.69902H50.8529V13.5223C50.8529 14.4994 51.116 15.2587 51.6423 15.8003Z"
        fill="white" />
    <path fill-rule="evenodd" clip-rule="evenodd"
        d="M58.1819 16.0871C58.845 16.4907 59.6186 16.6924 60.5028 16.6924C61.0922 16.6924 61.629 16.6022 62.1132 16.4216C62.6079 16.2411 63.0342 15.9915 63.392 15.6729C63.7499 15.3543 64.013 14.9879 64.1814 14.5737L62.5079 13.7453C62.3184 14.0852 62.0553 14.356 61.7185 14.5578C61.3922 14.7596 60.9922 14.8604 60.5185 14.8604C60.0449 14.8604 59.6239 14.7489 59.2555 14.5259C58.8976 14.3029 58.6239 13.9896 58.4345 13.586C58.3247 13.3319 58.2565 13.0558 58.2299 12.7576H64.4183C64.4604 12.6408 64.4867 12.5028 64.4972 12.3435C64.5183 12.1842 64.5288 12.0302 64.5288 11.8815C64.5288 11.2974 64.434 10.7557 64.2446 10.2566C64.0551 9.74682 63.7815 9.29546 63.4236 8.90251C63.0657 8.50956 62.6289 8.20157 62.1132 7.97855C61.6079 7.75552 61.0185 7.64401 60.3449 7.64401C59.5449 7.64401 58.8187 7.84049 58.1661 8.23343C57.524 8.62638 57.0135 9.1627 56.6346 9.8424C56.2662 10.5115 56.082 11.2814 56.082 12.1523C56.082 12.9913 56.2662 13.7559 56.6346 14.4463C57.003 15.1366 57.5188 15.6835 58.1819 16.0871ZM58.2726 11.1646C58.3062 10.9817 58.3549 10.8118 58.4187 10.6548C58.5976 10.23 58.8555 9.91143 59.1923 9.69902C59.5291 9.476 59.9133 9.36449 60.3449 9.36449C60.7975 9.36449 61.1817 9.476 61.4974 9.69902C61.8237 9.92205 62.0553 10.2247 62.1921 10.6071C62.2595 10.7818 62.3015 10.9677 62.3183 11.1646H58.2726Z"
        fill="white" />
    <path
        d="M67.486 7.83518H65.3072L68.2596 16.5013H70.0911L72.1096 10.6491L74.1013 16.5013H75.9485L78.901 7.83518H76.7222L74.9296 13.2877L73.0277 7.83518H71.1963L69.2799 13.2917L67.486 7.83518Z"
        fill="white" />
    <path fill-rule="evenodd" clip-rule="evenodd"
        d="M80.7684 16.3898C81.2105 16.5915 81.7315 16.6924 82.3315 16.6924C82.8051 16.6924 83.2367 16.6287 83.6261 16.5013C84.0156 16.3632 84.3629 16.172 84.6681 15.9278C84.7907 15.8254 84.9065 15.7137 85.0155 15.5925V16.5013H86.9732V10.7345C86.9732 10.1185 86.8206 9.5822 86.5154 9.12553C86.2207 8.65824 85.8049 8.29716 85.2681 8.04227C84.7313 7.77676 84.1103 7.64401 83.4051 7.64401C82.8262 7.64401 82.2894 7.73959 81.7947 7.93076C81.3 8.12192 80.8684 8.38743 80.5 8.72727C80.1422 9.0565 79.879 9.44945 79.7106 9.90612L81.4 10.7345C81.5578 10.3415 81.8052 10.0283 82.142 9.79461C82.4893 9.55034 82.8841 9.42821 83.3261 9.42821C83.7998 9.42821 84.1787 9.55565 84.4629 9.81054C84.7576 10.0548 84.905 10.3628 84.905 10.7345V11.015L82.3473 11.4354C81.6736 11.5416 81.1158 11.7222 80.6737 11.9771C80.2316 12.2319 79.9053 12.5506 79.6948 12.9329C79.4843 13.3046 79.3791 13.7294 79.3791 14.2073C79.3791 14.7065 79.5001 15.1472 79.7422 15.5295C79.9843 15.9012 80.3263 16.188 80.7684 16.3898ZM84.905 12.6098L82.742 12.9807C82.3315 13.055 82.0262 13.1878 81.8262 13.3789C81.6263 13.5701 81.5263 13.8197 81.5263 14.1277C81.5263 14.425 81.6368 14.664 81.8578 14.8445C82.0894 15.0144 82.3736 15.0994 82.7104 15.0994C83.1419 15.0994 83.5209 15.0091 83.8472 14.8286C84.184 14.6374 84.4418 14.3772 84.6208 14.048C84.8102 13.7188 84.905 13.3577 84.905 12.9647V12.6098Z"
        fill="white" />
    <path
        d="M89.248 19.9422C89.469 19.9847 89.6953 20.0059 89.9269 20.0059C90.4637 20.0059 90.9373 19.8997 91.3478 19.6873C91.7689 19.4856 92.1373 19.1882 92.453 18.7952C92.7688 18.4023 93.0372 17.9297 93.2582 17.3774L97 7.83518H94.7581L92.5466 13.8128L90.3216 7.83518H88.0954L91.4951 16.5049L91.3005 16.9633C91.1321 17.3243 90.9373 17.6111 90.7163 17.8235C90.5058 18.0465 90.1637 18.158 89.6901 18.158C89.5217 18.158 89.3374 18.1421 89.1375 18.1102C88.948 18.0784 88.7849 18.0465 88.648 18.0147V19.7511C88.827 19.8466 89.027 19.9104 89.248 19.9422Z"
        fill="white" />
</svg>