<svg width="1344" height="579" viewBox="0 0 1344 579" fill="none" xmlns="http://www.w3.org/2000/svg">
    <path
        d="M1361.25 583.349H1131.5M1361.25 583.349V-1.3494M1361.25 583.349L1276.79 547.514V461.996L1198.79 439.927L1126.58 419.492L1059.52 400.527L997.059 382.865L938.757 366.376L884.208 350.942L833.063 336.483L785.025 322.898V258.788L833.063 245.22L884.208 230.777L938.757 215.377L997.059 198.92L1059.52 181.292L1126.58 162.359L1198.79 141.974L1276.79 119.955M1131.5 583.349L1075.17 547.514L1023.17 514.436L975.013 483.801L930.291 455.344L888.642 428.851L849.768 404.125L813.391 380.983L779.282 359.294L747.251 338.909M1131.5 583.349H212.497M1361.25 -1.3494H-17.2544M1361.25 -1.3494L1276.79 34.436M-17.2544 485.897V96.1032M-17.2544 485.897V583.349M-17.2544 485.897L67.1263 461.996L145.031 439.927L217.175 419.492L284.17 400.527L346.557 382.865L404.789 366.376L459.268 350.942L510.343 336.483L558.329 322.898V242.761L510.343 222.409M-17.2544 96.1032V-1.3494M-17.2544 96.1032L67.1263 119.955L145.031 141.974L217.175 162.359L284.17 181.292L346.557 198.92L404.789 215.377L459.268 230.777L510.343 245.22L558.329 258.788M-17.2544 -1.3494L67.1263 34.436M-17.2544 583.349H212.514L268.739 547.514L320.652 514.436L368.725 483.801L413.377 455.344L454.956 428.851L493.76 404.125L530.068 380.983L564.106 359.294L596.085 338.909M-17.2544 583.349L67.0913 547.514L144.996 514.436L217.14 483.801L284.135 455.344L346.522 428.851M1276.77 547.514H67.1263V34.436M67.1263 34.436H1276.79M67.1263 34.436L145.031 67.4814H1023.17L1075.17 34.436L1131.5 -1.3494M1198.79 514.436H145.013V67.4649L217.158 98.0509H1126.58M1059.5 455.344H284.153V126.475M1059.5 455.344V126.475M1059.5 455.344L1126.56 483.801H217.158V98.0674L284.153 126.475M1059.5 455.344L997.042 428.851M284.153 126.475H1059.5M284.153 126.475L346.539 152.934H997.059M1276.79 34.436V119.955M1276.79 119.955L1361.25 96.1032M1276.79 119.955V462.012L1361.25 485.913M1276.77 34.436L1198.78 67.4814V514.453L1276.77 547.531M997.042 428.851H346.522M997.042 428.851V152.934M997.042 428.851L938.74 404.125M346.522 428.851V152.934L404.754 177.627M346.522 428.851L404.754 404.125M1198.79 67.4649L1126.58 98.0509M1126.58 98.0509V483.784L1198.79 514.42M212.497 -1.3494L268.722 34.436L320.635 67.4814L368.708 98.0674L413.359 126.475L454.939 152.934L493.743 177.627L530.05 200.736L564.089 222.392L596.068 242.744H747.216L779.248 222.392L813.356 200.736L849.733 177.627L888.607 152.934L930.257 126.475L974.978 98.0674L1023.14 67.4814H1198.76M1126.56 98.0674L1059.5 126.475M1059.5 126.475L997.042 152.934M901.751 583.349L873.56 547.514L847.534 514.436L823.428 483.801L801.05 455.344L780.208 428.851L760.745 404.125L742.538 380.983L725.467 359.294L709.425 338.909M442.248 583.349L470.335 547.514L496.274 514.436L520.293 483.801L542.601 455.344L563.373 428.851L582.767 404.125L600.903 380.983L617.905 359.294L633.877 338.909M938.74 404.125H404.754M938.74 404.125V177.627M404.754 404.125V177.627M404.754 404.125L459.233 380.983M404.754 177.627H938.74M404.754 177.627L459.233 200.736M558.294 306.854L510.308 313.655L459.233 320.901L404.754 328.626L346.522 336.879L284.135 345.726L217.14 355.217L144.996 365.451L67.0913 376.494L-17.2893 388.461M558.294 274.799L510.308 268.032L459.233 260.818L404.754 253.127L346.522 244.906L284.135 236.092L217.14 226.634L144.996 216.45L67.0913 205.457L-17.2544 193.556M997.042 152.934L938.74 177.627M672 583.349L671.948 547.514L671.895 514.436L671.86 483.801L671.825 455.344L671.79 428.851L671.756 404.125L671.721 380.983L671.686 359.294L671.651 338.909M558.294 290.827H510.308L459.233 290.86H404.754L346.522 290.893H284.135L217.14 290.926H144.996L67.0913 290.975L-17.2893 291.008M459.233 200.736H884.208M459.233 200.736L510.308 222.392M459.233 200.736V380.983M884.208 200.736L938.757 177.627M884.208 200.736L833.063 222.392M884.208 200.736V380.983M510.308 222.392H833.063M510.308 222.392V359.294M833.063 222.392V359.294M833.063 222.392L785.025 242.744M884.208 380.983L938.757 404.125M884.208 380.983H459.233M884.208 380.983L833.063 359.294M459.233 380.983L510.308 359.294M833.063 359.294L785.025 338.909M833.063 359.294H510.308M785.025 338.909H596.085M785.025 338.909V322.882M596.085 338.909H558.294M510.308 359.294L558.294 338.909M558.294 338.909V322.882M1361.25 388.461L1276.79 376.494L1198.79 365.451L1126.58 355.217L1059.52 345.726L997.059 336.879L938.757 328.626L884.208 320.901L833.063 313.655L785.025 306.854M1361.25 193.556L1276.79 205.473L1198.79 216.466L1126.58 226.651L1059.52 236.109L997.059 244.923L938.757 253.143L884.208 260.835L833.063 268.048L785.025 274.816M709.442 242.744L725.484 222.392L742.556 200.736L760.762 177.627L780.225 152.934L801.067 126.475L823.445 98.0674L847.552 67.4814L873.578 34.436L901.769 -1.3494M633.877 242.744L617.905 222.392L600.903 200.736L582.767 177.627L563.373 152.934L542.601 126.475L520.293 98.0674L496.274 67.4814L470.335 34.436L442.248 -1.3494M1361.25 291.008L1276.79 290.975H1198.79L1126.58 290.926H1059.52L997.059 290.893H938.757L884.208 290.86H833.063L785.025 290.827M671.668 242.744L671.703 222.392L671.738 200.736L671.773 177.627L671.808 152.934L671.843 126.475L671.878 98.0674L671.913 67.4814L671.965 34.436L672.017 -1.3494M785.025 242.744V258.772M785.025 242.744H747.234M558.294 242.744H596.085"
        stroke="white" stroke-linecap="round" stroke-linejoin="round" />
</svg>