<svg width="118" height="61" viewBox="0 0 118 61" fill="none" xmlns="http://www.w3.org/2000/svg">
<path d="M0 60.0176V0.712094H25.4252V9.18432H9.32257V24.8579H22.1199V33.3301H9.32257V51.5454H25.4252V60.0176H0Z" fill="#8D0CFF"/>
<path d="M28.9277 60.1528V0.847221H42.7421C52.4037 0.847221 56.5565 5.3375 56.5565 14.4875V18.1306C56.5565 24.2306 54.6072 28.1278 50.4544 29.8222V29.9917C55.1157 31.4319 56.6412 35.8375 56.6412 42.5306V52.9514C56.6412 55.8319 56.726 57.95 57.6582 60.1528H48.1661C47.6576 58.6278 47.3186 57.6958 47.3186 52.8667V42.0222C47.3186 36.5153 45.7084 34.7361 41.4708 34.7361H38.2503V60.1528H28.9277ZM38.2503 26.2639H41.6403C45.1151 26.2639 47.2339 24.7389 47.2339 19.9944V15.4194C47.2339 11.1833 45.7931 9.31945 42.4878 9.31945H38.2503V26.2639Z" fill="#8D0CFF"/>
<path d="M60.9906 60.1528V0.847221H74.7202C84.0428 0.847221 88.6193 6.01528 88.6193 15.5042V21.35C88.6193 30.8389 84.0428 36.0069 74.7202 36.0069H70.3132V60.1528H60.9906ZM70.3132 27.5347H74.7202C77.6865 27.5347 79.2968 26.1792 79.2968 21.9431V14.9111C79.2968 10.675 77.6865 9.31945 74.7202 9.31945H70.3132V27.5347Z" fill="#8D0CFF"/>
<path d="M103.931 61C94.7783 61 90.2018 55.5778 90.2018 46.0889V42.7H99.0159V46.7667C99.0159 51.0028 100.88 52.5278 103.847 52.5278C106.813 52.5278 108.762 51.0028 108.762 46.5972C108.762 41.6833 106.728 38.6333 100.626 33.2958C92.8291 26.4333 90.2018 21.5194 90.2018 14.7417C90.2018 5.42222 95.0326 0 104.101 0C113.169 0 117.661 5.42222 117.661 14.9111V17.3681H108.847V14.3181C108.847 10.0819 107.152 8.47222 104.186 8.47222C101.219 8.47222 99.4396 10.0819 99.4396 14.1486C99.4396 18.4694 101.558 21.5194 107.66 26.8569C115.457 33.7194 118 38.5486 118 45.9194C118 55.5778 113.084 61 103.931 61Z" fill="#8D0CFF"/>
</svg>
